<?xml version="1.0" encoding="utf-8"?>
<!-- Generator: Adobe Illustrator 25.2.3, SVG Export Plug-In . SVG Version: 6.00 Build 0)  -->
<svg version="1.1" id="Livello_1" xmlns="http://www.w3.org/2000/svg" xmlns:xlink="http://www.w3.org/1999/xlink" x="0px" y="0px"
	 viewBox="0 0 14.1 16.5" style="enable-background:new 0 0 14.1 16.5;" xml:space="preserve">
<style type="text/css">
	.st0{fill:#000;}
	@media (prefers-color-scheme: dark) {
        .st0{fill:#fff;}
    }
</style>
<g>
	<path class="st0" d="M9.8,16.5c0.3,0,0.6-0.1,0.9-0.1c0.1,0,0.1-0.1,0.1-0.2v-2.4c0-0.1,0.1-0.1,0.1-0.1h2.7c0.3,0,0.5-0.3,0.4-0.5
		l-1.6-2.9c-0.1-0.1,0-0.2,0.1-0.2H13c0.3,0,0.5-0.3,0.4-0.5l-1.2-2.1c-0.1-0.1,0-0.2,0.1-0.2h0.2c0.3,0,0.5-0.2,0.4-0.5L9.6,0.1
		c0-0.1-0.2-0.1-0.2,0c0,0,0,0,0,0v16.1C9.5,16.4,9.6,16.5,9.8,16.5z"/>
	<path class="st0" d="M8.3,0.5V16c0,0.3-0.2,0.5-0.5,0.5C3.4,16.3,0,12.7,0,8.3s3.4-8,7.8-8.3C8.1,0,8.3,0.2,8.3,0.5z"/>
</g>
</svg>
