<?xml version="1.0" encoding="UTF-8"?>
<svg id="Livello_1" data-name="Livello 1" xmlns="http://www.w3.org/2000/svg" viewBox="0 0 13.26 16.53">
  <defs>
    <style>
      .cls-1 {
        fill: #0a002e;
        stroke-width: 0px;
      }
    </style>
  </defs>
  <path class="cls-1" d="M8.99,16.46c.27-.02.64-.08.9-.12.1-.01.14-.13.14-.2v-2.4c0-.07.07-.13.15-.13h2.68c.29,0,.48-.27.35-.49l-1.6-2.9c-.05-.08.02-.18.13-.18h.44c.29,0,.48-.27.35-.5l-1.19-2.13c-.05-.08.02-.18.13-.18h.22c.28,0,.46-.25.35-.48L8.78.05c-.04-.08-.16-.06-.18.02,0,0,0,.02,0,.03v16.06c0,.25.11.33.39.3Z"/>
  <path class="cls-1" d="M8.3.51v15.51c0,.28-.24.52-.52.51-4.35-.27-7.78-3.86-7.78-8.26S3.43.27,7.78,0c.28-.02.52.22.52.51Z"/>
</svg>