<?xml version="1.0" encoding="utf-8"?>
<!-- Generator: Adobe Illustrator 25.2.3, SVG Export Plug-In . SVG Version: 6.00 Build 0)  -->
<svg version="1.1" id="Livello_1" xmlns="http://www.w3.org/2000/svg" xmlns:xlink="http://www.w3.org/1999/xlink" x="0px" y="0px"
	 viewBox="0 0 36 36" style="enable-background:new 0 0 36 36;" xml:space="preserve">
<style type="text/css">
	.st0{fill:#FFFFFF;}
</style>
<g>
	<path class="st0" d="M-35.6,27.3c0.3,0,0.6-0.1,0.9-0.1c0.1,0,0.1-0.1,0.1-0.2v-2.4c0-0.1,0.1-0.1,0.1-0.1h2.7
		c0.3,0,0.5-0.3,0.4-0.5l-1.6-2.9c-0.1-0.1,0-0.2,0.1-0.2h0.5c0.3,0,0.5-0.3,0.4-0.5l-1.2-2.1c-0.1-0.1,0-0.2,0.1-0.2h0.2
		c0.3,0,0.5-0.2,0.4-0.5l-3.3-6.7c0-0.1-0.2-0.1-0.2,0l0,0V27C-35.9,27.2-35.8,27.3-35.6,27.3z"/>
	<path class="st0" d="M-37.1,11.3v15.5c0,0.3-0.2,0.5-0.5,0.5c-4.4-0.2-7.8-3.8-7.8-8.2s3.4-8,7.8-8.3C-37.3,10.8-37.1,11-37.1,11.3
		z"/>
</g>
<g>
	<path class="st0" d="M25.2,36c0.8,0,1.5-0.2,2.3-0.2c0.3,0,0.3-0.2,0.3-0.4v-5.2c0-0.2,0.3-0.2,0.3-0.2h6.9c0.8,0,1.3-0.7,1-1.1
		l-4.1-6.3c-0.3-0.2,0-0.4,0.3-0.4h1.3c0.8,0,1.3-0.7,1-1.1l-3.1-4.6c-0.3-0.2,0-0.4,0.3-0.4h0.5c0.8,0,1.3-0.4,1-1.1L24.6,0.2
		c0-0.2-0.5-0.2-0.5,0l0,0v35.1C24.4,35.8,24.6,36,25.2,36z"/>
	<path class="st0" d="M21.3,1.1v33.8c0,0.7-0.5,1.1-1.3,1.1C8.7,35.6,0,27.7,0,18.1S8.7,0.7,20,0C20.8,0,21.3,0.4,21.3,1.1z"/>
</g>
</svg>
